# xmcd CD database file
#
# Track frame offsets:
#	150
#	37755
#	65884
#	89599
#	107951
#	144518
#	181731
#	231360
#
# Disc length: 3974 seconds
#
# Revision: 0
# Processed by: cddbd v1.4PL0 Copyright (c) Steve Scherf et al.
# Submitted via: CDex 1.40Beta9
#
DISCID=6d0f8408
DTITLE=John Butler Trio - Three
DYEAR=1900
DGENRE=Blues
TTITLE0=Betterman
TTITLE1=Attitude
TTITLE2=Media
TTITLE3=Believe
TTITLE4=Take
TTITLE5=Life Ain't What it Seems
TTITLE6=Money
TTITLE7=Foundation
EXTD=ID3G: 0
EXTT0=
EXTT1=
EXTT2=
EXTT3=
EXTT4=
EXTT5=
EXTT6=
EXTT7=
PLAYORDER=
